<svg xmlns="http://www.w3.org/2000/svg" xmlns:xlink="http://www.w3.org/1999/xlink" viewBox="1622 2979 65 65">
  <defs>
    <style>
      .cls-1 {
        fill: #fff;
      }

      .cls-2 {
        clip-path: url(#clip-path);
      }

      .cls-3 {
        clip-path: url(#clip-path-2);
      }

      .cls-4 {
        fill: #82cfc9;
      }

      .cls-5 {
        fill: #91a1cb;
      }

      .cls-6 {
        fill: #e84c37;
      }

      .cls-7 {
        fill: #f8bd58;
      }

      .cls-8 {
        fill: #2ea4dc;
      }

      .cls-9 {
        fill: #5c4d92;
      }

      .cls-10 {
        filter: url(#Ellipse_31);
      }
    </style>
    <filter id="Ellipse_31" x="1622" y="2979" width="65" height="65" filterUnits="userSpaceOnUse">
      <feOffset dy="3" input="SourceAlpha"/>
      <feGaussianBlur stdDeviation="3" result="blur"/>
      <feFlood flood-opacity="0.345"/>
      <feComposite operator="in" in2="blur"/>
      <feComposite in="SourceGraphic"/>
    </filter>
    <clipPath id="clip-path">
      <circle id="Ellipse_27" data-name="Ellipse 27" cx="23.439" cy="23.439" r="23.439"/>
    </clipPath>
    <clipPath id="clip-path-2">
      <circle id="Ellipse_30" data-name="Ellipse 30" cx="23.439" cy="23.439" r="23.439" transform="translate(0 0)"/>
    </clipPath>
  </defs>
  <g id="Symbol_14" data-name="Symbol 14" transform="translate(-390 1922)">
    <g class="cls-10" transform="matrix(1, 0, 0, 1, 390, -1922)">
      <circle id="Ellipse_31-2" data-name="Ellipse 31" class="cls-1" cx="23.5" cy="23.5" r="23.5" transform="translate(1631 2985)"/>
    </g>
    <g id="Group_83" data-name="Group 83" transform="translate(1854.8 1063)">
      <g id="Group_70" data-name="Group 70" class="cls-2" transform="translate(166.2 0)">
        <circle id="Ellipse_26" data-name="Ellipse 26" class="cls-1" cx="23.439" cy="23.439" r="23.439"/>
      </g>
      <g id="Group_82" data-name="Group 82" class="cls-3" transform="translate(166.2 0)">
        <g id="Group_71" data-name="Group 71" transform="translate(11.751 53.417)">
          <path id="Path_293" data-name="Path 293" d="M271.176,426.458a8.249,8.249,0,0,0-11.776-.605s5.926-3.808,10.805,1.387A9.747,9.747,0,0,0,271.176,426.458Z" transform="translate(-259.4 -423.667)"/>
        </g>
        <g id="Group_72" data-name="Group 72" transform="translate(14.575 50.908)">
          <path id="Path_294" data-name="Path 294" d="M293.576,406.558a8.249,8.249,0,0,0-11.776-.605s5.926-3.808,10.805,1.387C292.631,407.365,293.576,406.558,293.576,406.558Z" transform="translate(-281.8 -403.767)"/>
        </g>
        <g id="Group_73" data-name="Group 73" transform="translate(-20.956 39.754)">
          <path id="Path_295" data-name="Path 295" class="cls-4" d="M.722,315.3A21.336,21.336,0,0,0,15.8,341.424l5.522-20.615Z" transform="translate(0.011 -315.3)"/>
        </g>
        <g id="Group_74" data-name="Group 74" transform="translate(4.287 30.689)">
          <path id="Path_296" data-name="Path 296" class="cls-5" d="M200.767,265.288A21.327,21.327,0,0,0,221.521,243.4l-21.321.58Z" transform="translate(-200.2 -243.4)"/>
        </g>
        <g id="Group_75" data-name="Group 75" transform="translate(4.291 9.368)">
          <path id="Path_297" data-name="Path 297" class="cls-6" d="M220.97,74.3a21.327,21.327,0,0,0-20.728,21.913l21.321-.593Z" transform="translate(-200.233 -74.3)"/>
        </g>
        <g id="Group_76" data-name="Group 76" transform="translate(24.964 9.372)">
          <path id="Path_298" data-name="Path 298" class="cls-7" d="M386.113,95.07A21.328,21.328,0,0,0,364.2,74.342l.593,21.321Z" transform="translate(-364.2 -74.333)"/>
        </g>
        <g id="Group_77" data-name="Group 77" transform="translate(-0.101 24.41)">
          <path id="Path_299" data-name="Path 299" class="cls-8" d="M186.078,219.485A21.327,21.327,0,0,0,170.595,193.6L165.4,214.278Z" transform="translate(-165.4 -193.6)"/>
        </g>
        <g id="Group_78" data-name="Group 78" transform="translate(-5.295 45.138)">
          <path id="Path_300" data-name="Path 300" class="cls-9" d="M124.2,378.678a21.327,21.327,0,0,0,25.885-15.483L129.407,358Z" transform="translate(-124.2 -358)"/>
        </g>
        <g id="Group_79" data-name="Group 79" transform="translate(32.134 24.838)">
          <path id="Path_301" data-name="Path 301" d="M421.1,197a4.9,4.9,0,0,0,4.262,5.56,5.1,5.1,0,0,1-3.543-5.422A4.525,4.525,0,0,0,421.1,197Z" transform="translate(-421.06 -197)"/>
        </g>
        <g id="Group_80" data-name="Group 80" transform="translate(12.584 7.905)">
          <path id="Path_302" data-name="Path 302" d="M273.057,62.7a8.239,8.239,0,0,0-6.935,9.532s.05-7.048,7.061-8.3C273.22,63.936,273.057,62.7,273.057,62.7Z" transform="translate(-266.01 -62.7)"/>
        </g>
        <g id="Group_81" data-name="Group 81" transform="translate(12.3 12.684)">
          <rect id="Rectangle_77" data-name="Rectangle 77" width="0.908" height="3.909" transform="matrix(0.895, 0.446, -0.446, 0.895, 7.469, 0)"/>
          <rect id="Rectangle_78" data-name="Rectangle 78" width="0.908" height="3.909" transform="translate(9.211 0.714) rotate(37.814)"/>
          <circle id="Ellipse_28" data-name="Ellipse 28" class="cls-1" cx="5.106" cy="5.106" r="5.106" transform="translate(0 11.512) rotate(-77.684)"/>
          <circle id="Ellipse_29" data-name="Ellipse 29" cx="3.707" cy="3.707" r="3.707" transform="translate(3.136 10.387) rotate(-77.684)"/>
        </g>
      </g>
    </g>
  </g>
</svg>
